<svg xmlns="http://www.w3.org/2000/svg" viewBox="0 0 51.56 51.56"><defs><style>.cls-1{fill:#EEE3D8;}</style></defs><g id="Capa_2" data-name="Capa 2"><g id="Capa_7" data-name="Capa 7"><path class="cls-1" d="M32.29,31.73l.73.82c-1.12.13-2.16.22-3.19.4a11.27,11.27,0,0,0-4.45,1.71c-1.46,1-3,1.89-4.52,2.89L7.3,19.76a21.83,21.83,0,0,1,7.46-3.52,4.64,4.64,0,0,1,4.81,1.52C23.76,22.46,28,27.08,32.29,31.73Z"/><path class="cls-1" d="M25.78,0A25.78,25.78,0,1,0,51.56,25.78,25.78,25.78,0,0,0,25.78,0ZM48.69,27q-5.22,3.63-10.45,7.24a9.93,9.93,0,0,1-1.47.8L20.39,42.61l-.88.4-6.85-9.23c-2.05-2.77-4.11-5.52-6.14-8.3a2.61,2.61,0,0,1-.44-1.15c-.22-1.64-.39-3.28-.55-4.93a.84.84,0,0,1,.22-.67,23.46,23.46,0,0,1,8.63-4.21,7.67,7.67,0,0,1,4.58.37C21.1,11.12,24.69,9.7,28.69,9c.68-.13,1.34-.35,2-.48a1.07,1.07,0,0,1,.71.12C32,9,32.48,9.41,33,9.85L48.87,24A1.79,1.79,0,0,1,48.69,27Z"/><path class="cls-1" d="M46.36,24.76s0,0,0,.12c-4.27,1.69-8.45,3.44-11.17,7.53-.56-.62-1.12-1.21-1.67-1.81q-6.36-7-12.74-14a.84.84,0,0,1-.13-1.17,8.81,8.81,0,0,1,5.08-3.93,46.36,46.36,0,0,1,4.58-1.12.84.84,0,0,1,.62.22Q38.67,17.68,46.36,24.76Z"/></g></g></svg>