<svg xmlns="http://www.w3.org/2000/svg" viewBox="0 0 30.5 30.5"><defs><style>.cls-1{fill:#fff;}</style></defs><g id="Capa_2" data-name="Capa 2"><g id="Capa_15" data-name="Capa 15"><path class="cls-1" d="M0,15.25V.35C0,0,0,0,.35,0h29.8c.35,0,.35,0,.35.36V30.15c0,.35,0,.35-.36.35H21.45c-.33,0-.33,0-.33-.33V19.11c0-.34,0-.34.33-.34h3.31c.21,0,.32,0,.35-.28.13-1.13.28-2.26.43-3.39,0-.28.08-.56.14-.83s0-.43-.34-.43H21.46c-.34,0-.34,0-.34-.33,0-1,0-2,0-3.08a1.58,1.58,0,0,1,1.64-1.5c.92,0,1.84,0,2.76,0,.17,0,.25-.07.25-.26,0-1.32,0-2.63,0-3.95,0-.2-.09-.26-.27-.26-1.35,0-2.69,0-4,0a5.28,5.28,0,0,0-4.23,2.18,4.76,4.76,0,0,0-1,2.88l0,3.88c0,.42,0,.42-.43.42H12.53c-.3,0-.33,0-.33.33,0,1.42,0,2.85,0,4.28,0,.3,0,.32.33.32,1.12,0,2.24,0,3.35,0,.25,0,.31.08.31.31,0,3.71,0,7.41,0,11.12,0,.24-.07.3-.31.3H.33c-.33,0-.33,0-.33-.33Z"/></g></g></svg>