<svg xmlns="http://www.w3.org/2000/svg" viewBox="0 0 30.5 30.47"><defs><style>.cls-1{fill:#fff;}</style></defs><g id="Capa_2" data-name="Capa 2"><g id="Capa_14" data-name="Capa 14"><path class="cls-1" d="M15.26,0H21.9a8.3,8.3,0,0,1,5.49,1.91,8,8,0,0,1,2.84,4.51,10.17,10.17,0,0,1,.25,2.05c0,4.5,0,9,0,13.5a8.23,8.23,0,0,1-4.38,7.45,7.92,7.92,0,0,1-4,1c-4.57,0-9.15,0-13.73,0a8.15,8.15,0,0,1-7.15-4.06A7.94,7.94,0,0,1,0,22.09c0-4.58,0-9.15,0-13.73A8.14,8.14,0,0,1,4.42,1,7.93,7.93,0,0,1,8.47,0ZM27.78,15.24V8.58a5.62,5.62,0,0,0-.5-2.5A5.58,5.58,0,0,0,22,2.71c-4.5,0-9,0-13.49,0A5.6,5.6,0,0,0,4.65,4.15,5.67,5.67,0,0,0,2.72,8.58V21.73A8.42,8.42,0,0,0,2.81,23a5.57,5.57,0,0,0,3.58,4.4,5.71,5.71,0,0,0,2.24.38c4.27,0,8.55,0,12.82,0,.35,0,.7,0,1,0a5.56,5.56,0,0,0,4.36-2.56,5.67,5.67,0,0,0,.93-3.25Z"/><path class="cls-1" d="M15.39,23.07a7.84,7.84,0,1,1,7.71-8A7.87,7.87,0,0,1,15.39,23.07Zm5-7.84a5.15,5.15,0,1,0-5.15,5.14A5.17,5.17,0,0,0,20.4,15.23Z"/><path class="cls-1" d="M23.43,9.05a2,2,0,1,1,2-2A2,2,0,0,1,23.43,9.05Z"/></g></g></svg>