<svg xmlns="http://www.w3.org/2000/svg" viewBox="0 0 36.82 29.52"><defs><style>.cls-1{fill:#fff;}</style></defs><g id="Capa_2" data-name="Capa 2"><g id="Capa_7" data-name="Capa 7"><path class="cls-1" d="M18.41,29.52H3.6A3.61,3.61,0,0,1,.05,26.17c-.07-2.33,0-4.66,0-7q0-6,0-12C0,5.93,0,4.71,0,3.5A3.69,3.69,0,0,1,3.65,0h15C23.42,0,28.2.05,33,0a3.87,3.87,0,0,1,3.84,3.92c-.07,4,0,8,0,12,0,3.31,0,6.62,0,9.93A3.6,3.6,0,0,1,33,29.51H18.41ZM5.57,9.33V25.8H31.24V9.34l-4.3,3c-2.73,1.94-5.47,3.89-8.19,5.84a.5.5,0,0,1-.69,0c-2.81-2-5.64-4-8.46-6ZM31.29,3.75H5.52l12.63,9c.23.17.36.11.56,0l3.37-2.41Z"/></g></g></svg>