<svg xmlns="http://www.w3.org/2000/svg" viewBox="0 0 74.77 29.71"><defs><style>.cls-1{fill:#fff;}</style></defs><g id="Capa_2" data-name="Capa 2"><g id="Capa_7" data-name="Capa 7"><path class="cls-1" d="M51.55,0C56.68.11,61,.19,65.26.31a33.48,33.48,0,0,1,4,.28,5.34,5.34,0,0,1,4.92,5.25c.28,3.5.58,7,.58,10.5A56.11,56.11,0,0,1,74,24.62a5.23,5.23,0,0,1-5.39,4.66c-6.39.18-12.79.41-19.18.43-4.43,0-8.85-.22-13.27-.44-3.18-.15-5.07-2.23-5.45-5.6a75.43,75.43,0,0,1-.42-12.48c.11-2.06.32-4.12.63-6.16A5.43,5.43,0,0,1,36.32.46C41.67.28,47,.14,51.55,0Zm4.51,22.83c.46.38.8.69,1.16,1,1.45,1,3,.57,3.56-1a2.83,2.83,0,0,0,.2-.95c0-3.24,0-6.47,0-9.7a2.34,2.34,0,0,0-1.45-2.37,2.56,2.56,0,0,0-2.71.7c-.23.2-.45.41-.81.75V4.92H53.6V24.09H56Zm14.8-5.42c0-1.47.07-2.84,0-4.2a3.55,3.55,0,0,0-1.4-2.81A4,4,0,0,0,65.29,10a3.5,3.5,0,0,0-2,3.24c-.11,2-.16,4-.11,6.05A5.54,5.54,0,0,0,64,22.85,4.06,4.06,0,0,0,68.9,24a4,4,0,0,0,1.9-4.67H68.42c0,.5-.09,1-.12,1.45,0,.66-.28,1.18-1,1.28a1.15,1.15,0,0,1-1.44-1.09c-.11-1.14,0-2.3,0-3.51Zm-27-7.52c0,.21,0,.36,0,.51q0,5.53,0,11.07a8.19,8.19,0,0,0,.07,1.21,1.71,1.71,0,0,0,2.32,1.56,4.36,4.36,0,0,0,1.28-.63,13.49,13.49,0,0,0,1.16-.95l.08,1.41h2.43V9.92H48.66c0,3.46,0,6.86,0,10.26a2.19,2.19,0,0,1-.55,1.23c-.35.42-.91.87-1.43.51-.29-.2-.38-.84-.38-1.28,0-3.31,0-6.63,0-9.94V9.89ZM40.13,7.5h3.1V4.92H34.31V7.55h3V24.08h2.77Z"/><path class="cls-1" d="M0,4.8c1,0,1.87,0,2.77,0,.19,0,.44.36.5.59.58,2,1.11,4,1.66,6a6.41,6.41,0,0,0,.21.61c.6-2.3,1.19-4.52,1.76-6.75a.56.56,0,0,1,.68-.5c.78,0,1.56,0,2.44,0C9.56,6.41,9.14,7.9,8.7,9.39c-.62,2.06-1.27,4.12-1.88,6.2a5.23,5.23,0,0,0-.2,1.48c0,2.35,0,4.7,0,7.2-.94,0-1.84,0-2.73,0-.12,0-.29-.37-.3-.58,0-1.46-.1-2.93,0-4.39a20.18,20.18,0,0,0-1.47-8.1c-.65-1.91-1.31-3.8-2-5.7A6.74,6.74,0,0,1,0,4.8Z"/><path class="cls-1" d="M27.4,24.19H24.83l-.1-1.31a16.19,16.19,0,0,1-1.58,1.18c-1.64,1-3.24.2-3.29-1.69-.09-4.14,0-8.28,0-12.46h2.73v.76c0,3.32,0,6.63,0,9.94,0,.5-.2,1.21.65,1.27a1.8,1.8,0,0,0,1.59-1.45c0-1.16,0-2.33,0-3.49,0-2.32,0-4.64,0-7H27.4Z"/><path class="cls-1" d="M9.87,16.57a31.91,31.91,0,0,1,.37-4.17c.42-2,1.75-2.88,3.87-2.85a3.43,3.43,0,0,1,3.49,3,27.85,27.85,0,0,1-.06,9.11,3.53,3.53,0,0,1-3.87,2.8,3.59,3.59,0,0,1-3.55-3.28C10,19.74,10,18.33,9.87,16.57Zm2.83.5h0c0,1.06,0,2.12,0,3.19s.54,1.66,1.19,1.68,1-.47,1.18-1.5c0-.1,0-.2,0-.3,0-2.13,0-4.25,0-6.37,0-1.14-.49-1.79-1.23-1.78s-1.13.62-1.16,1.75S12.7,16,12.7,17.07Z"/><path class="cls-1" d="M58.56,17c0,1.16,0,2.33,0,3.49-.05,1.34-.73,1.84-1.83,1.41a1,1,0,0,1-.71-1c0-2.57,0-5.15,0-7.72,0-.75.47-1.05,1.12-1.2a1,1,0,0,1,1.29.76,3.12,3.12,0,0,1,.16,1C58.58,14.76,58.57,15.87,58.56,17Z"/><path class="cls-1" d="M68.48,15.29H65.65c.07-.87.1-1.69.24-2.49a1.23,1.23,0,0,1,2.38.07C68.38,13.65,68.41,14.44,68.48,15.29Z"/></g></g></svg>