<svg xmlns="http://www.w3.org/2000/svg" viewBox="0 0 161.5 64.2"><defs><style>.cls-1{fill:#E9DED3;}</style></defs><g id="Capa_2" data-name="Capa 2"><g id="Capa_13" data-name="Capa 13"><path class="cls-1" d="M43.22,36.51c-.57.23-1.15.43-1.72.66a2.25,2.25,0,0,0-1.43,3,2.57,2.57,0,0,1,.23.73,1.2,1.2,0,0,1-.22.83,2.43,2.43,0,0,0-.43,3.18.8.8,0,0,1,0,.75A3.76,3.76,0,0,0,39.43,50c.45.89,0,1.53-1,1.53H22.7l-.41,0V11.4c1.26.3,2.47.54,3.66.88,1.45.42,2.91.84,4.32,1.4a5.53,5.53,0,0,1,2.79,2.63q5.27,9.53,10.55,19C44,36,43.92,36.23,43.22,36.51Z"/><path class="cls-1" d="M49.93,10.26a.53.53,0,0,0,0,.13L34.7,15.65c-1.44-2.83-3.92-4-6.71-4.68-2.22-.56-4.44-1.09-6.67-1.62-.76-.18-.8-.13-.8.67V51.47H16.61V0Z"/><path class="cls-1" d="M52.08,11.52v40H41.24c.41-1.17-.2-2.14-.54-3.18a1.79,1.79,0,0,1,.08-1,4.81,4.81,0,0,1,.44-.84,2.24,2.24,0,0,0,0-2.46c-.2-.3-.27-.6,0-.85a2.51,2.51,0,0,0,.86-2.58l2.78-.38a12.54,12.54,0,0,0,1.51-.27,2.15,2.15,0,0,0,1.8-2.32c0-1,0-1.94,0-2.91V20.84c0-2.19-1.43-3.26-3.52-2.64l-7.3,2.19-1.76-3.17Z"/><path class="cls-1" d="M14.82,15.12c0,.15,0,.31,0,.55-.89-.19-1.73-.35-2.57-.54l-4.39-1a2.58,2.58,0,0,0-3.34,2.69V51.49H.58V5.94c.44.1.85.18,1.26.29L14.28,9.41c.38.09.56.23.56.66C14.81,11.76,14.83,13.44,14.82,15.12Z"/><path class="cls-1" d="M14.79.08V7.72l-12-3.06s0-.08,0-.12Z"/><path class="cls-1" d="M60.26,31.58H58.32L60,18.08l0-1.31h4.26a4.79,4.79,0,0,1,1.93.39,3.27,3.27,0,0,1,1.44,1.18,3.65,3.65,0,0,1,.54,2.08,4.87,4.87,0,0,1-.43,2.08,4.48,4.48,0,0,1-1.18,1.6,5.06,5.06,0,0,1-1.81,1l3.11,6.49H65.72l-3.64-7.65h.46a3.92,3.92,0,0,0,2.62-.86,3.08,3.08,0,0,0,1-2.48,2.17,2.17,0,0,0-.62-1.71,2.4,2.4,0,0,0-1.66-.56h-2Z"/><path class="cls-1" d="M76.2,16.77h8L84,18.32H78.08l-.59,4.9h4.56l-.21,1.53H77.28L76.62,30h5.91l-.19,1.55h-7.8l1.68-13.5Z"/><path class="cls-1" d="M93.62,16.77,92,30h5.47l-.19,1.55h-7.4l1.7-13.5,0-1.31Z"/><path class="cls-1" d="M111.35,16.77l2.74,14.81h-2l-.86-4.9h-4.24l-2.11,4.9h-1.76l6.52-14.81ZM110,19.5l-2.38,5.67h3.34Z"/><path class="cls-1" d="M119.91,16.77h9.82l-.19,1.55h-3.95l-1.67,13.26H122l1.67-13.26h-3.93Z"/><path class="cls-1" d="M139.38,31.78a4.71,4.71,0,0,1-2.86-.83,4.86,4.86,0,0,1-1.67-2.22,8.43,8.43,0,0,1-.55-3.07,12.13,12.13,0,0,1,.45-3.28,10.41,10.41,0,0,1,1.33-2.93,6.86,6.86,0,0,1,2.19-2.1,6,6,0,0,1,3.09-.78,4.91,4.91,0,0,1,2.89.79,4.72,4.72,0,0,1,1.68,2.18,8.41,8.41,0,0,1,.55,3.11A12.62,12.62,0,0,1,146,26a9.68,9.68,0,0,1-1.34,2.95A6.85,6.85,0,0,1,142.47,31,6.05,6.05,0,0,1,139.38,31.78Zm.27-1.53a3.61,3.61,0,0,0,1.85-.47,4.4,4.4,0,0,0,1.36-1.26,7,7,0,0,0,.92-1.78,10.51,10.51,0,0,0,.52-2,12.53,12.53,0,0,0,.16-2,8.67,8.67,0,0,0-.29-2.25,3.72,3.72,0,0,0-1-1.73,2.78,2.78,0,0,0-2-.67,3.49,3.49,0,0,0-1.85.48A4.69,4.69,0,0,0,138,19.84a6.48,6.48,0,0,0-.93,1.77,10.51,10.51,0,0,0-.52,2,12.72,12.72,0,0,0-.16,2,8.17,8.17,0,0,0,.29,2.23,3.62,3.62,0,0,0,1,1.75A2.8,2.8,0,0,0,139.65,30.25Z"/><path class="cls-1" d="M158.26,16.57a5.84,5.84,0,0,1,1.09.11,6.24,6.24,0,0,1,1.09.34,4.2,4.2,0,0,1,1,.57l-.88,1.49a3.36,3.36,0,0,0-.77-.56,3.17,3.17,0,0,0-.82-.32,3.71,3.71,0,0,0-.9-.1,3,3,0,0,0-1.22.26,2.42,2.42,0,0,0-1,.77,2,2,0,0,0-.37,1.23,1.84,1.84,0,0,0,.37,1.17,4,4,0,0,0,1,.86c.39.25.79.51,1.23.76a9.7,9.7,0,0,1,1.24.89,4.07,4.07,0,0,1,.94,1.2,3.71,3.71,0,0,1,.37,1.75,4.75,4.75,0,0,1-.67,2.54,4.63,4.63,0,0,1-1.79,1.67,5.26,5.26,0,0,1-2.47.58,6.7,6.7,0,0,1-2-.3,7.88,7.88,0,0,1-1.88-.82l.9-1.69a9.76,9.76,0,0,0,1,.71,3.57,3.57,0,0,0,.93.43,4.18,4.18,0,0,0,1.12.14,2.54,2.54,0,0,0,1.37-.4,3.13,3.13,0,0,0,1.05-1.06,2.62,2.62,0,0,0,.42-1.43,2.14,2.14,0,0,0-.37-1.27,3.76,3.76,0,0,0-.95-.91c-.39-.26-.8-.52-1.23-.77a8.14,8.14,0,0,1-1.23-.85,3.73,3.73,0,0,1-.94-1.14,3.47,3.47,0,0,1-.36-1.65A3.79,3.79,0,0,1,155.92,17,6.1,6.1,0,0,1,158.26,16.57Z"/><path class="cls-1" d="M70.67,44.18A8.6,8.6,0,0,1,69.84,48a6.38,6.38,0,0,1-2.34,2.64,6.63,6.63,0,0,1-3.6,1h-5V37.94a3,3,0,0,0-.07-.31c0-.19-.09-.38-.14-.59a2.86,2.86,0,0,0-.1-.34h5.31a6.72,6.72,0,0,1,3.65.94,6.13,6.13,0,0,1,2.3,2.63A9.1,9.1,0,0,1,70.67,44.18Zm-2.84.08a9.15,9.15,0,0,0-.22-2,5.72,5.72,0,0,0-.71-1.78,3.83,3.83,0,0,0-1.26-1.27,3.63,3.63,0,0,0-1.89-.47H61.56V49.6h2.23a3.45,3.45,0,0,0,2.34-.76,4.31,4.31,0,0,0,1.3-2A8.21,8.21,0,0,0,67.83,44.26Z"/><path class="cls-1" d="M72,36.7h8.82v2H74.94v4.23h4.53v2H74.94V49.6h5.91v2H72.32V37.94Z"/><path class="cls-1" d="M96.37,40.18A3.19,3.19,0,0,1,96,41.76a3.29,3.29,0,0,1-1,1.16,3.63,3.63,0,0,1-1.44.57,4.26,4.26,0,0,1,1.74.7,4.13,4.13,0,0,1,1.28,1.38A3.65,3.65,0,0,1,97,47.48a4,4,0,0,1-.43,1.94,3.58,3.58,0,0,1-1.16,1.28,4.87,4.87,0,0,1-1.63.71,8,8,0,0,1-1.82.21H87.07V37.94a3,3,0,0,0-.07-.31c0-.19-.08-.38-.12-.59a1.6,1.6,0,0,0-.08-.34h5a9.1,9.1,0,0,1,1.64.15,4.68,4.68,0,0,1,1.47.53A2.86,2.86,0,0,1,96,38.44,3.47,3.47,0,0,1,96.37,40.18Zm-2.78.39a2,2,0,0,0-.25-1.06,1.55,1.55,0,0,0-.69-.6,2.47,2.47,0,0,0-1-.2H89.72v3.82h2A1.83,1.83,0,0,0,93,42,1.9,1.9,0,0,0,93.59,40.57Zm.65,6.59a2.41,2.41,0,0,0-.44-1.5,2.52,2.52,0,0,0-1.13-.85,4,4,0,0,0-1.46-.26H89.72V49.6h2.09a2.65,2.65,0,0,0,1.25-.28,2,2,0,0,0,.86-.84A2.63,2.63,0,0,0,94.24,47.16Z"/><path class="cls-1" d="M104.65,36.7l5,14.92h-2.83l-1.38-4.28h-4.18l-1.4,4.28H97.59l5-14.92Zm-1.34,3.54-1.44,5.1h2.89Z"/><path class="cls-1" d="M110.63,36.7h4.81a7.12,7.12,0,0,1,2.36.37,3.55,3.55,0,0,1,1.72,1.27,4,4,0,0,1,.65,2.43,3.53,3.53,0,0,1-.42,1.66,4.38,4.38,0,0,1-1.1,1.35,3.72,3.72,0,0,1-1.47.77l4.3,7.07h-3L114.6,45h-1.06v6.65h-2.62V37.94Zm2.91,2V43h1.23a4.29,4.29,0,0,0,1.34-.2,1.76,1.76,0,0,0,.94-.68,2.33,2.33,0,0,0,.35-1.35,2,2,0,0,0-.31-1.12,1.89,1.89,0,0,0-.81-.67,2.59,2.59,0,0,0-1.09-.23Z"/><path class="cls-1" d="M122,36.7h4.81a7.17,7.17,0,0,1,2.36.37,3.55,3.55,0,0,1,1.72,1.27,4.05,4.05,0,0,1,.65,2.43,3.53,3.53,0,0,1-.42,1.66,4.38,4.38,0,0,1-1.1,1.35,3.79,3.79,0,0,1-1.47.77l4.3,7.07h-3L125.92,45h-1v6.65h-2.63V37.94Zm2.91,2V43h1.23a4.29,4.29,0,0,0,1.34-.2,1.8,1.8,0,0,0,.94-.68,2.33,2.33,0,0,0,.34-1.35,2,2,0,0,0-.3-1.12,2,2,0,0,0-.81-.67,2.63,2.63,0,0,0-1.09-.23Z"/><path class="cls-1" d="M133.3,36.7h2.92V51.62h-2.65V37.94s0-.12-.06-.31-.09-.38-.13-.59A1.6,1.6,0,0,0,133.3,36.7Z"/><path class="cls-1" d="M144.44,51.85a6.63,6.63,0,0,1-2.85-.59,6.09,6.09,0,0,1-2.08-1.65,7.41,7.41,0,0,1-1.27-2.45,10.86,10.86,0,0,1,0-6,7.38,7.38,0,0,1,1.28-2.44,6,6,0,0,1,2.09-1.62,6.78,6.78,0,0,1,2.85-.58,6.92,6.92,0,0,1,2.9.57,5.8,5.8,0,0,1,2.11,1.61,7.37,7.37,0,0,1,1.3,2.45,10.37,10.37,0,0,1,.44,3.08,9.9,9.9,0,0,1-.46,3,7.17,7.17,0,0,1-1.34,2.43,5.92,5.92,0,0,1-2.12,1.62A6.84,6.84,0,0,1,144.44,51.85Zm.08-1.94a3.27,3.27,0,0,0,1.85-.5,3.71,3.71,0,0,0,1.18-1.33,6.52,6.52,0,0,0,.63-1.82,10.42,10.42,0,0,0,.19-2,11.78,11.78,0,0,0-.18-2,6.47,6.47,0,0,0-.63-1.89,3.7,3.7,0,0,0-1.19-1.4,3.65,3.65,0,0,0-3.74,0,3.62,3.62,0,0,0-1.18,1.33,6.77,6.77,0,0,0-.63,1.84,10.29,10.29,0,0,0-.19,2,11,11,0,0,0,.19,2,7.25,7.25,0,0,0,.63,1.89,3.7,3.7,0,0,0,1.19,1.4A3.19,3.19,0,0,0,144.52,49.91Z"/><path class="cls-1" d="M156.9,36.45a7.13,7.13,0,0,1,2.1.32,6.49,6.49,0,0,1,1.85.9l-1.32,1.76a3.59,3.59,0,0,0-1.25-.76,4.25,4.25,0,0,0-1.4-.26,2.35,2.35,0,0,0-1.36.42,1.45,1.45,0,0,0-.61,1.29,1.85,1.85,0,0,0,.27,1,2.81,2.81,0,0,0,.75.75,12.17,12.17,0,0,0,1,.62l1.39.71a7.35,7.35,0,0,1,1.33.89,4.06,4.06,0,0,1,1,1.27,4.16,4.16,0,0,1,.38,1.86,4.32,4.32,0,0,1-2.5,4.1,5.68,5.68,0,0,1-2.43.53,10.31,10.31,0,0,1-2.33-.28,6.91,6.91,0,0,1-2.17-.91l.9-2.26a5.64,5.64,0,0,0,1.55,1.07,4.16,4.16,0,0,0,1.8.42,2.61,2.61,0,0,0,1.15-.25,2.13,2.13,0,0,0,.88-.72,2,2,0,0,0,.35-1.19,1.93,1.93,0,0,0-.38-1.22,3.81,3.81,0,0,0-1-.84c-.41-.25-.85-.48-1.32-.72s-.84-.42-1.25-.66a6.13,6.13,0,0,1-1.11-.82,3.77,3.77,0,0,1-.81-1.16,4.56,4.56,0,0,1,.39-4,4.07,4.07,0,0,1,1.78-1.39A6,6,0,0,1,156.9,36.45Z"/><path class="cls-1" d="M0,60.64A3.53,3.53,0,0,1,.22,59.4a3.73,3.73,0,0,1,.62-1.12,3,3,0,0,1,2.37-1.09,2.83,2.83,0,0,1,1.55.42,2.61,2.61,0,0,1,1,1.09l-1,.71a1.6,1.6,0,0,0-.43-.62,1.47,1.47,0,0,0-.57-.32,2.06,2.06,0,0,0-.59-.09,1.7,1.7,0,0,0-.83.2,2,2,0,0,0-.59.54,2.19,2.19,0,0,0-.35.74,2.86,2.86,0,0,0-.12.82,2.89,2.89,0,0,0,.14.88,2.43,2.43,0,0,0,.39.75,2,2,0,0,0,.6.52,1.73,1.73,0,0,0,.78.19,1.92,1.92,0,0,0,.61-.11,1.8,1.8,0,0,0,.58-.34A1.68,1.68,0,0,0,4.79,62l1,.64a2.08,2.08,0,0,1-.63.87,3.06,3.06,0,0,1-1,.55,3.38,3.38,0,0,1-1.07.18,2.7,2.7,0,0,1-1.27-.3,3.31,3.31,0,0,1-1-.82,4.33,4.33,0,0,1-.65-1.15A3.9,3.9,0,0,1,0,60.64Z"/><path class="cls-1" d="M9.37,64.2a2.79,2.79,0,0,1-1.3-.29,3,3,0,0,1-1-.79A3.74,3.74,0,0,1,6.43,62,3.81,3.81,0,0,1,6.2,60.7a3.6,3.6,0,0,1,.24-1.32,3.92,3.92,0,0,1,.67-1.12,3.19,3.19,0,0,1,1-.78,2.92,2.92,0,0,1,2.56,0,3.13,3.13,0,0,1,1,.81,3.94,3.94,0,0,1,.64,1.13,3.77,3.77,0,0,1,.23,1.29A3.66,3.66,0,0,1,12.31,62a3.94,3.94,0,0,1-.66,1.12,3.31,3.31,0,0,1-1,.77A2.85,2.85,0,0,1,9.37,64.2ZM7.48,60.7a3.14,3.14,0,0,0,.13.86,2.63,2.63,0,0,0,.37.75,1.77,1.77,0,0,0,.6.52,1.72,1.72,0,0,0,.8.19,1.65,1.65,0,0,0,.81-.2,1.94,1.94,0,0,0,.6-.54,2.37,2.37,0,0,0,.36-.75,3,3,0,0,0,.13-.83,2.83,2.83,0,0,0-.14-.87,2.7,2.7,0,0,0-.37-.74,1.84,1.84,0,0,0-.6-.51,1.59,1.59,0,0,0-.79-.19,1.56,1.56,0,0,0-.82.2,1.76,1.76,0,0,0-.59.53,2.42,2.42,0,0,0-.36.74A2.63,2.63,0,0,0,7.48,60.7Z"/><path class="cls-1" d="M14.78,59.71v4.44H13.52V57.24h1l3.36,4.56V57.25h1.26v6.9h-1Z"/><path class="cls-1" d="M20.18,62.68a2,2,0,0,0,.42.21,1.91,1.91,0,0,0,.71.13,1.14,1.14,0,0,0,.59-.14.79.79,0,0,0,.35-.39,2.1,2.1,0,0,0,.17-.67c0-.28,0-.61,0-1V57.24h1.26v3.49a12.2,12.2,0,0,1-.08,1.41,3.47,3.47,0,0,1-.32,1.1,1.65,1.65,0,0,1-.72.71,2.75,2.75,0,0,1-1.28.25,2.8,2.8,0,0,1-.79-.1,2.29,2.29,0,0,1-.64-.33Z"/><path class="cls-1" d="M27.76,64.2a2.93,2.93,0,0,1-1.32-.27,2.27,2.27,0,0,1-.88-.77,3.14,3.14,0,0,1-.49-1.1,5.09,5.09,0,0,1-.16-1.3V57.24h1.27v3.52a4.61,4.61,0,0,0,.07.84,2.55,2.55,0,0,0,.26.72,1.41,1.41,0,0,0,.49.51,1.44,1.44,0,0,0,.75.19,1.51,1.51,0,0,0,.77-.19,1.42,1.42,0,0,0,.48-.52,2.28,2.28,0,0,0,.26-.72,3.83,3.83,0,0,0,.08-.83V57.24H30.6v3.52a5.24,5.24,0,0,1-.16,1.34,3.57,3.57,0,0,1-.5,1.1,2.47,2.47,0,0,1-.89.74A3,3,0,0,1,27.76,64.2Z"/><path class="cls-1" d="M33.14,59.71v4.44H31.87V57.24h1l3.36,4.56V57.25h1.27v6.9H36.45Z"/><path class="cls-1" d="M43.72,58.42H41.64v5.73H40.39V58.42H38.31V57.24h5.41Z"/><path class="cls-1" d="M47.16,64.2a2.79,2.79,0,0,1-1.3-.29,3.18,3.18,0,0,1-1-.79A3.94,3.94,0,0,1,44.22,62,3.81,3.81,0,0,1,44,60.7a3.6,3.6,0,0,1,.24-1.32,3.71,3.71,0,0,1,.67-1.12,3.08,3.08,0,0,1,1-.78,2.92,2.92,0,0,1,2.56,0,3.13,3.13,0,0,1,1,.81,3.94,3.94,0,0,1,.64,1.13,3.77,3.77,0,0,1,.23,1.29A3.66,3.66,0,0,1,50.1,62a3.75,3.75,0,0,1-.67,1.12,3.27,3.27,0,0,1-1,.77A2.85,2.85,0,0,1,47.16,64.2Zm-1.89-3.5a2.8,2.8,0,0,0,.13.86,2.63,2.63,0,0,0,.37.75,1.77,1.77,0,0,0,.6.52,1.72,1.72,0,0,0,.8.19,1.65,1.65,0,0,0,.81-.2,1.94,1.94,0,0,0,.6-.54,2.37,2.37,0,0,0,.36-.75,3,3,0,0,0,.12-.83,2.82,2.82,0,0,0-.13-.87,2.47,2.47,0,0,0-.38-.74,1.71,1.71,0,0,0-.59-.51,1.62,1.62,0,0,0-.79-.19,1.56,1.56,0,0,0-.82.2,1.76,1.76,0,0,0-.59.53,2.42,2.42,0,0,0-.36.74A2.63,2.63,0,0,0,45.27,60.7Z"/><path class="cls-1" d="M59,57.24v6.91H57.72v-3H54.77v3H53.51V57.24h1.26V60h2.95V57.24Z"/><path class="cls-1" d="M62.1,57.24h1.28l2.39,6.91h-1.3l-.54-1.72H61.54L61,64.15H59.7Zm1.53,4.25-.89-2.86-.9,2.86Z"/><path class="cls-1" d="M71.72,62.37a1.62,1.62,0,0,1-.28,1,1.85,1.85,0,0,1-.77.6,2.59,2.59,0,0,1-1,.2H66.48V57.24H70a1.24,1.24,0,0,1,.8.26,1.68,1.68,0,0,1,.51.66,2,2,0,0,1,.18.84,2,2,0,0,1-.24,1,1.49,1.49,0,0,1-.7.66,1.7,1.7,0,0,1,.89.63A2,2,0,0,1,71.72,62.37Zm-4-4v1.74h1.68a.68.68,0,0,0,.39-.11.81.81,0,0,0,.28-.3,1,1,0,0,0,.1-.47,1.06,1.06,0,0,0-.09-.45.88.88,0,0,0-.26-.31.65.65,0,0,0-.36-.1Zm2.7,3.73a1.16,1.16,0,0,0-.1-.47,1,1,0,0,0-.27-.34.69.69,0,0,0-.39-.12H67.75V63h1.87a.75.75,0,0,0,.42-.13.84.84,0,0,0,.3-.32A1,1,0,0,0,70.45,62.12Z"/><path class="cls-1" d="M72.71,64.15V57.24H74v6.91Z"/><path class="cls-1" d="M80.19,58.42H78.11v5.73H76.86V58.42H74.78V57.24h5.41Z"/><path class="cls-1" d="M82.16,57.24h1.29l2.39,6.91H84.53L84,62.43H81.61l-.55,1.72h-1.3Zm1.54,4.25-.9-2.86-.9,2.86Z"/><path class="cls-1" d="M85.91,60.64a3.76,3.76,0,0,1,.21-1.24,4,4,0,0,1,.63-1.12,3,3,0,0,1,1-.79,3,3,0,0,1,1.35-.3,2.84,2.84,0,0,1,1.56.42,2.61,2.61,0,0,1,1,1.09l-1,.71a1.6,1.6,0,0,0-.43-.62,1.63,1.63,0,0,0-.57-.32,2.06,2.06,0,0,0-.59-.09,1.67,1.67,0,0,0-.83.2,1.91,1.91,0,0,0-.59.54,2.19,2.19,0,0,0-.35.74,2.86,2.86,0,0,0-.12.82,2.89,2.89,0,0,0,.14.88,2.43,2.43,0,0,0,.39.75,2,2,0,0,0,.6.52,1.73,1.73,0,0,0,.78.19,1.92,1.92,0,0,0,.61-.11,1.8,1.8,0,0,0,.58-.34A1.68,1.68,0,0,0,90.7,62l1,.64a2,2,0,0,1-.62.87,3.06,3.06,0,0,1-1,.55,3.38,3.38,0,0,1-1.07.18,2.67,2.67,0,0,1-1.27-.3,3.31,3.31,0,0,1-1-.82,4.07,4.07,0,0,1-.65-1.15A3.9,3.9,0,0,1,85.91,60.64Z"/><path class="cls-1" d="M92.59,64.15V57.24h1.26v6.91Z"/><path class="cls-1" d="M98,64.2a2.79,2.79,0,0,1-1.3-.29,3,3,0,0,1-1-.79A3.74,3.74,0,0,1,95,62a3.81,3.81,0,0,1-.23-1.29,3.6,3.6,0,0,1,.24-1.32,3.92,3.92,0,0,1,.67-1.12,3.19,3.19,0,0,1,1-.78,2.92,2.92,0,0,1,2.56,0,3.13,3.13,0,0,1,1,.81,3.94,3.94,0,0,1,.64,1.13,3.77,3.77,0,0,1,.23,1.29,3.66,3.66,0,0,1-.24,1.31,3.94,3.94,0,0,1-.66,1.12,3.31,3.31,0,0,1-1,.77A2.85,2.85,0,0,1,98,64.2Zm-1.89-3.5a3.14,3.14,0,0,0,.13.86,2.63,2.63,0,0,0,.37.75,1.77,1.77,0,0,0,.6.52A1.72,1.72,0,0,0,98,63a1.65,1.65,0,0,0,.81-.2,1.94,1.94,0,0,0,.6-.54,2.37,2.37,0,0,0,.36-.75,3,3,0,0,0,.13-.83,2.83,2.83,0,0,0-.14-.87,2.7,2.7,0,0,0-.37-.74,1.84,1.84,0,0,0-.6-.51,1.59,1.59,0,0,0-.79-.19,1.56,1.56,0,0,0-.82.2,1.76,1.76,0,0,0-.59.53,2.42,2.42,0,0,0-.36.74A2.63,2.63,0,0,0,96.09,60.7Z"/><path class="cls-1" d="M103.39,59.71v4.44h-1.26V57.24h1l3.36,4.56V57.25h1.26v6.9h-1.05Z"/><path class="cls-1" d="M110.88,57.24h1.29l2.39,6.91h-1.3l-.54-1.72h-2.39l-.54,1.72h-1.31Zm1.54,4.25-.89-2.86-.9,2.86Z"/><path class="cls-1" d="M115.27,64.15V57.24h1.26V63h3.32v1.17Z"/><path class="cls-1" d="M122.54,64.15V57.24h2.88a1.81,1.81,0,0,1,.83.19,2.24,2.24,0,0,1,.66.53,2.61,2.61,0,0,1,.43.74,2.4,2.4,0,0,1,.15.84,2.64,2.64,0,0,1-.14.84,2.28,2.28,0,0,1-.41.71,2,2,0,0,1-.62.46l1.48,2.6h-1.39l-1.34-2.31h-1.26v2.31Zm1.27-3.49h1.58a.64.64,0,0,0,.42-.15,1.07,1.07,0,0,0,.3-.41,1.47,1.47,0,0,0,.11-.56,1.31,1.31,0,0,0-.13-.58,1.2,1.2,0,0,0-.33-.4.66.66,0,0,0-.42-.14h-1.53Z"/><path class="cls-1" d="M133.15,63v1.17h-4.52V57.24h4.44v1.18H129.9v1.66h2.74v1.09H129.9V63Z"/><path class="cls-1" d="M135.4,59.71v4.44h-1.26V57.24h1l3.36,4.56V57.25h1.26v6.9h-1.05Z"/><path class="cls-1" d="M143.83,64.2a2.77,2.77,0,0,1-1.2-.27,3.25,3.25,0,0,1-1-.75,3.73,3.73,0,0,1-.66-1.13,3.94,3.94,0,0,1-.24-1.39,3.71,3.71,0,0,1,.24-1.34,3.47,3.47,0,0,1,.67-1.11,3.1,3.1,0,0,1,1-.75,2.89,2.89,0,0,1,1.25-.27,2.94,2.94,0,0,1,1.57.41,2.62,2.62,0,0,1,1,1.1l-.95.74a1.73,1.73,0,0,0-.69-.79,1.84,1.84,0,0,0-1-.27,1.61,1.61,0,0,0-.76.18,1.87,1.87,0,0,0-.58.51,2.25,2.25,0,0,0-.38.74,2.86,2.86,0,0,0-.14.89,2.67,2.67,0,0,0,.15.91,2.24,2.24,0,0,0,.4.73,1.91,1.91,0,0,0,.61.49,1.66,1.66,0,0,0,.77.19,1.87,1.87,0,0,0,.95-.28,3,3,0,0,0,.84-.8v1.33A2.46,2.46,0,0,1,143.83,64.2Zm1.81-2.62h-1.31v-1h2.36v3.55h-1.05Z"/><path class="cls-1" d="M147.77,64.15V57.24H149v6.91Z"/><path class="cls-1" d="M150.39,64.15V57.24h4.36v1.18h-3.1V60.2h2.58v1.09h-2.58v2.86Z"/><path class="cls-1" d="M158.32,64.2a2.79,2.79,0,0,1-1.3-.29,3.07,3.07,0,0,1-1-.79,3.71,3.71,0,0,1-.64-1.13,3.74,3.74,0,0,1,0-2.61,3.71,3.71,0,0,1,.67-1.12,3.08,3.08,0,0,1,1-.78,2.73,2.73,0,0,1,1.27-.29,2.76,2.76,0,0,1,1.29.3,3.13,3.13,0,0,1,1,.81,4.18,4.18,0,0,1,.64,1.13,3.77,3.77,0,0,1,.23,1.29,3.66,3.66,0,0,1-.24,1.31,3.75,3.75,0,0,1-.67,1.12,3.27,3.27,0,0,1-1,.77A2.85,2.85,0,0,1,158.32,64.2Zm-1.89-3.5a2.8,2.8,0,0,0,.13.86,2.39,2.39,0,0,0,.37.75,1.77,1.77,0,0,0,.6.52,1.72,1.72,0,0,0,.8.19,1.68,1.68,0,0,0,.81-.2,1.94,1.94,0,0,0,.6-.54,2.37,2.37,0,0,0,.36-.75,3,3,0,0,0,.12-.83,2.82,2.82,0,0,0-.13-.87,2.47,2.47,0,0,0-.38-.74,1.8,1.8,0,0,0-.59-.51,1.62,1.62,0,0,0-.79-.19,1.54,1.54,0,0,0-.82.2,1.67,1.67,0,0,0-.59.53,2.7,2.7,0,0,0-.37.74A2.94,2.94,0,0,0,156.43,60.7Z"/></g></g></svg>