<svg xmlns="http://www.w3.org/2000/svg" viewBox="0 0 161.5 64.2" ><path fill="currentColor" d="M43.22 36.51l-1.72.66a2.25 2.25 0 0 0-1.43 3 2.57 2.57 0 0 1 .23.73 1.2 1.2 0 0 1-.22.83 2.43 2.43 0 0 0-.43 3.18.8.8 0 0 1 0 .75 3.76 3.76 0 0 0-.22 4.34c.45.89 0 1.53-1 1.53H22.7h-.41V11.4l3.66.88 4.32 1.4a5.53 5.53 0 0 1 2.79 2.63q5.27 9.53 10.55 19c.39.69.31.92-.39 1.2zm6.71-26.25a.53.53 0 0 0 0 .13L34.7 15.65c-1.44-2.83-3.92-4-6.71-4.68l-6.67-1.62c-.76-.18-.8-.13-.8.67v41.45h-3.91V0zm2.15 1.26v40H41.24c.41-1.17-.2-2.14-.54-3.18a1.79 1.79 0 0 1 .08-1 4.81 4.81 0 0 1 .44-.84 2.24 2.24 0 0 0 0-2.46c-.2-.3-.27-.6 0-.85a2.51 2.51 0 0 0 .86-2.58l2.78-.38a12.54 12.54 0 0 0 1.51-.27 2.15 2.15 0 0 0 1.8-2.32v-2.91-13.89c0-2.19-1.43-3.26-3.52-2.64l-7.3 2.19-1.76-3.17zm-37.26 3.6v.55l-2.57-.54-4.39-1a2.58 2.58 0 0 0-3.34 2.69v34.67H.58V5.94l1.26.29 12.44 3.18c.38.09.56.23.56.66l-.02 5.05zM14.79.08v7.64l-12-3.06v-.12zm45.47 31.5h-1.94L60 18.08v-1.31h4.26a4.79 4.79 0 0 1 1.93.39 3.27 3.27 0 0 1 1.44 1.18 3.65 3.65 0 0 1 .54 2.08 4.87 4.87 0 0 1-.43 2.08 4.48 4.48 0 0 1-1.18 1.6 5.06 5.06 0 0 1-1.81 1l3.11 6.49h-2.14l-3.64-7.65h.46a3.92 3.92 0 0 0 2.62-.86 3.08 3.08 0 0 0 1-2.48 2.17 2.17 0 0 0-.62-1.71 2.4 2.4 0 0 0-1.66-.56h-2zM76.2 16.77h8l-.2 1.55h-5.92l-.59 4.9h4.56l-.21 1.53h-4.56L76.62 30h5.91l-.19 1.55h-7.8l1.68-13.5zm17.42 0L92 30h5.47l-.19 1.55h-7.4l1.7-13.5v-1.31zm17.73 0l2.74 14.81h-2l-.86-4.9h-4.24l-2.11 4.9h-1.76l6.52-14.81zM110 19.5l-2.38 5.67h3.34zm9.91-2.73h9.82l-.19 1.55h-3.95l-1.67 13.26H122l1.67-13.26h-3.93zm19.47 15.01a4.71 4.71 0 0 1-2.86-.83 4.86 4.86 0 0 1-1.67-2.22 8.43 8.43 0 0 1-.55-3.07 12.13 12.13 0 0 1 .45-3.28 10.41 10.41 0 0 1 1.33-2.93 6.86 6.86 0 0 1 2.19-2.1 6 6 0 0 1 3.09-.78 4.91 4.91 0 0 1 2.89.79 4.72 4.72 0 0 1 1.68 2.18 8.41 8.41 0 0 1 .55 3.11A12.62 12.62 0 0 1 146 26a9.68 9.68 0 0 1-1.34 2.95 6.85 6.85 0 0 1-2.19 2.05 6.05 6.05 0 0 1-3.09.78zm.27-1.53a3.61 3.61 0 0 0 1.85-.47 4.4 4.4 0 0 0 1.36-1.26 7 7 0 0 0 .92-1.78 10.51 10.51 0 0 0 .52-2 12.53 12.53 0 0 0 .16-2 8.67 8.67 0 0 0-.29-2.25 3.72 3.72 0 0 0-1-1.73 2.78 2.78 0 0 0-2-.67 3.49 3.49 0 0 0-1.85.48 4.69 4.69 0 0 0-1.32 1.27 6.48 6.48 0 0 0-.93 1.77 10.51 10.51 0 0 0-.52 2 12.72 12.72 0 0 0-.16 2 8.17 8.17 0 0 0 .29 2.23 3.62 3.62 0 0 0 1 1.75 2.8 2.8 0 0 0 1.97.66zm18.61-13.68a5.84 5.84 0 0 1 1.09.11 6.24 6.24 0 0 1 1.09.34 4.2 4.2 0 0 1 1 .57l-.88 1.49a3.36 3.36 0 0 0-.77-.56 3.17 3.17 0 0 0-.82-.32 3.71 3.71 0 0 0-.9-.1 3 3 0 0 0-1.22.26 2.42 2.42 0 0 0-1 .77 2 2 0 0 0-.37 1.23 1.84 1.84 0 0 0 .37 1.17 4 4 0 0 0 1 .86l1.23.76a9.7 9.7 0 0 1 1.24.89 4.07 4.07 0 0 1 .94 1.2 3.71 3.71 0 0 1 .37 1.75 4.75 4.75 0 0 1-.67 2.54 4.63 4.63 0 0 1-1.79 1.67 5.26 5.26 0 0 1-2.47.58 6.7 6.7 0 0 1-2-.3 7.88 7.88 0 0 1-1.88-.82l.9-1.69a9.76 9.76 0 0 0 1 .71 3.57 3.57 0 0 0 .93.43 4.18 4.18 0 0 0 1.12.14 2.54 2.54 0 0 0 1.37-.4 3.13 3.13 0 0 0 1.05-1.06 2.62 2.62 0 0 0 .42-1.43 2.14 2.14 0 0 0-.37-1.27 3.76 3.76 0 0 0-.95-.91l-1.23-.77a8.14 8.14 0 0 1-1.23-.85 3.73 3.73 0 0 1-.94-1.14 3.47 3.47 0 0 1-.36-1.65 3.79 3.79 0 0 1 2.39-3.77 6.1 6.1 0 0 1 2.34-.43zM70.67 44.18a8.6 8.6 0 0 1-.83 3.82 6.38 6.38 0 0 1-2.34 2.64 6.63 6.63 0 0 1-3.6 1h-5v-13.7a3 3 0 0 0-.07-.31c0-.19-.09-.38-.14-.59a2.86 2.86 0 0 0-.1-.34h5.31a6.72 6.72 0 0 1 3.65.94 6.13 6.13 0 0 1 2.3 2.63 9.1 9.1 0 0 1 .82 3.91zm-2.84.08a9.15 9.15 0 0 0-.22-2 5.72 5.72 0 0 0-.71-1.78 3.83 3.83 0 0 0-1.26-1.27 3.63 3.63 0 0 0-1.89-.47h-2.19V49.6h2.23a3.45 3.45 0 0 0 2.34-.76 4.31 4.31 0 0 0 1.3-2 8.21 8.21 0 0 0 .4-2.58zM72 36.7h8.82v2h-5.88v4.23h4.53v2h-4.53v4.67h5.91v2h-8.53V37.94zm24.37 3.48a3.19 3.19 0 0 1-.37 1.58 3.29 3.29 0 0 1-1 1.16 3.63 3.63 0 0 1-1.44.57 4.26 4.26 0 0 1 1.74.7 4.13 4.13 0 0 1 1.28 1.38 3.65 3.65 0 0 1 .42 1.91 4 4 0 0 1-.43 1.94 3.58 3.58 0 0 1-1.16 1.28 4.87 4.87 0 0 1-1.63.71 8 8 0 0 1-1.82.21h-4.89V37.94a3 3 0 0 0-.07-.31c0-.19-.08-.38-.12-.59a1.6 1.6 0 0 0-.08-.34h5a9.1 9.1 0 0 1 1.64.15 4.68 4.68 0 0 1 1.47.53A2.86 2.86 0 0 1 96 38.44a3.47 3.47 0 0 1 .37 1.74zm-2.78.39a2 2 0 0 0-.25-1.06 1.55 1.55 0 0 0-.69-.6 2.47 2.47 0 0 0-1-.2h-1.93v3.82h2A1.83 1.83 0 0 0 93 42a1.9 1.9 0 0 0 .59-1.43zm.65 6.59a2.41 2.41 0 0 0-.44-1.5 2.52 2.52 0 0 0-1.13-.85 4 4 0 0 0-1.46-.26h-1.49v5.05h2.09a2.65 2.65 0 0 0 1.25-.28 2 2 0 0 0 .86-.84 2.63 2.63 0 0 0 .32-1.32zm10.41-10.46l5 14.92h-2.83l-1.38-4.28h-4.18l-1.4 4.28h-2.27l5-14.92zm-1.34 3.54l-1.44 5.1h2.89zm7.32-3.54h4.81a7.12 7.12 0 0 1 2.36.37 3.55 3.55 0 0 1 1.72 1.27 4 4 0 0 1 .65 2.43 3.53 3.53 0 0 1-.42 1.66 4.38 4.38 0 0 1-1.1 1.35 3.72 3.72 0 0 1-1.47.77l4.3 7.07h-3L114.6 45h-1.06v6.65h-2.62V37.94zm2.91 2V43h1.23a4.29 4.29 0 0 0 1.34-.2 1.76 1.76 0 0 0 .94-.68 2.33 2.33 0 0 0 .35-1.35 2 2 0 0 0-.31-1.12 1.89 1.89 0 0 0-.81-.67 2.59 2.59 0 0 0-1.09-.23zm8.46-2h4.81a7.17 7.17 0 0 1 2.36.37 3.55 3.55 0 0 1 1.72 1.27 4.05 4.05 0 0 1 .65 2.43 3.53 3.53 0 0 1-.42 1.66 4.38 4.38 0 0 1-1.1 1.35 3.79 3.79 0 0 1-1.47.77l4.3 7.07h-3L125.92 45h-1v6.65h-2.63V37.94zm2.91 2V43h1.23a4.29 4.29 0 0 0 1.34-.2 1.8 1.8 0 0 0 .94-.68 2.33 2.33 0 0 0 .34-1.35 2 2 0 0 0-.3-1.12 2 2 0 0 0-.81-.67 2.63 2.63 0 0 0-1.09-.23zm8.39-2h2.92v14.92h-2.65V37.94s0-.12-.06-.31-.09-.38-.13-.59a1.6 1.6 0 0 0-.08-.34zm11.14 15.15a6.63 6.63 0 0 1-2.85-.59 6.09 6.09 0 0 1-2.08-1.65 7.41 7.41 0 0 1-1.27-2.45 10.86 10.86 0 0 1 0-6 7.38 7.38 0 0 1 1.28-2.44 6 6 0 0 1 2.09-1.62 6.78 6.78 0 0 1 2.85-.58 6.92 6.92 0 0 1 2.9.57 5.8 5.8 0 0 1 2.11 1.61 7.37 7.37 0 0 1 1.3 2.45 10.37 10.37 0 0 1 .44 3.08 9.9 9.9 0 0 1-.46 3 7.17 7.17 0 0 1-1.34 2.43 5.92 5.92 0 0 1-2.12 1.62 6.84 6.84 0 0 1-2.85.57zm.08-1.94a3.27 3.27 0 0 0 1.85-.5 3.71 3.71 0 0 0 1.18-1.33 6.52 6.52 0 0 0 .63-1.82 10.42 10.42 0 0 0 .19-2 11.78 11.78 0 0 0-.18-2 6.47 6.47 0 0 0-.63-1.89 3.7 3.7 0 0 0-1.19-1.4 3.65 3.65 0 0 0-3.74 0 3.62 3.62 0 0 0-1.18 1.33 6.77 6.77 0 0 0-.63 1.84 10.29 10.29 0 0 0-.19 2 11 11 0 0 0 .19 2 7.25 7.25 0 0 0 .63 1.89 3.7 3.7 0 0 0 1.19 1.4 3.19 3.19 0 0 0 1.88.48zm12.38-13.46a7.13 7.13 0 0 1 2.1.32 6.49 6.49 0 0 1 1.85.9l-1.32 1.76a3.59 3.59 0 0 0-1.25-.76 4.25 4.25 0 0 0-1.4-.26 2.35 2.35 0 0 0-1.36.42 1.45 1.45 0 0 0-.61 1.29 1.85 1.85 0 0 0 .27 1 2.81 2.81 0 0 0 .75.75 12.17 12.17 0 0 0 1 .62l1.39.71a7.35 7.35 0 0 1 1.33.89 4.06 4.06 0 0 1 1 1.27 4.16 4.16 0 0 1 .38 1.86 4.32 4.32 0 0 1-2.5 4.1 5.68 5.68 0 0 1-2.43.53 10.31 10.31 0 0 1-2.33-.28 6.91 6.91 0 0 1-2.17-.91l.9-2.26a5.64 5.64 0 0 0 1.55 1.07 4.16 4.16 0 0 0 1.8.42 2.61 2.61 0 0 0 1.15-.25 2.13 2.13 0 0 0 .88-.72 2 2 0 0 0 .35-1.19 1.93 1.93 0 0 0-.38-1.22 3.81 3.81 0 0 0-1-.84l-1.32-.72-1.25-.66a6.13 6.13 0 0 1-1.11-.82 3.77 3.77 0 0 1-.81-1.16 4.56 4.56 0 0 1 .39-4 4.07 4.07 0 0 1 1.78-1.39 6 6 0 0 1 2.37-.47zM0 60.64a3.53 3.53 0 0 1 .22-1.24 3.73 3.73 0 0 1 .62-1.12 3 3 0 0 1 2.37-1.09 2.83 2.83 0 0 1 1.55.42 2.61 2.61 0 0 1 1 1.09l-1 .71a1.6 1.6 0 0 0-.43-.62 1.47 1.47 0 0 0-.57-.32 2.06 2.06 0 0 0-.59-.09 1.7 1.7 0 0 0-.83.2 2 2 0 0 0-.59.54 2.19 2.19 0 0 0-.35.74 2.86 2.86 0 0 0-.12.82 2.89 2.89 0 0 0 .14.88 2.43 2.43 0 0 0 .39.75 2 2 0 0 0 .6.52 1.73 1.73 0 0 0 .78.19 1.92 1.92 0 0 0 .61-.11 1.8 1.8 0 0 0 .58-.34 1.68 1.68 0 0 0 .41-.57l1 .64a2.08 2.08 0 0 1-.63.87 3.06 3.06 0 0 1-1 .55 3.38 3.38 0 0 1-1.07.18 2.7 2.7 0 0 1-1.27-.3 3.31 3.31 0 0 1-1-.82 4.33 4.33 0 0 1-.65-1.15A3.9 3.9 0 0 1 0 60.64zm9.37 3.56a2.79 2.79 0 0 1-1.3-.29 3 3 0 0 1-1-.79A3.74 3.74 0 0 1 6.43 62a3.81 3.81 0 0 1-.23-1.3 3.6 3.6 0 0 1 .24-1.32 3.92 3.92 0 0 1 .67-1.12 3.19 3.19 0 0 1 1-.78 2.92 2.92 0 0 1 2.56 0 3.13 3.13 0 0 1 1 .81 3.94 3.94 0 0 1 .64 1.13 3.77 3.77 0 0 1 .23 1.29 3.66 3.66 0 0 1-.23 1.29 3.94 3.94 0 0 1-.66 1.12 3.31 3.31 0 0 1-1 .77 2.85 2.85 0 0 1-1.28.31zm-1.89-3.5a3.14 3.14 0 0 0 .13.86 2.63 2.63 0 0 0 .37.75 1.77 1.77 0 0 0 .6.52 1.72 1.72 0 0 0 .8.19 1.65 1.65 0 0 0 .81-.2 1.94 1.94 0 0 0 .6-.54 2.37 2.37 0 0 0 .36-.75 3 3 0 0 0 .13-.83 2.83 2.83 0 0 0-.14-.87 2.7 2.7 0 0 0-.37-.74 1.84 1.84 0 0 0-.6-.51 1.59 1.59 0 0 0-.79-.19 1.56 1.56 0 0 0-.82.2 1.76 1.76 0 0 0-.59.53 2.42 2.42 0 0 0-.36.74 2.63 2.63 0 0 0-.13.84zm7.3-.99v4.44h-1.26v-6.91h1l3.36 4.56v-4.55h1.26v6.9h-1zm5.4 2.97a2 2 0 0 0 .42.21 1.91 1.91 0 0 0 .71.13 1.14 1.14 0 0 0 .59-.14.79.79 0 0 0 .35-.39 2.1 2.1 0 0 0 .17-.67v-1-3.58h1.26v3.49a12.2 12.2 0 0 1-.08 1.41 3.47 3.47 0 0 1-.32 1.1 1.65 1.65 0 0 1-.72.71 2.75 2.75 0 0 1-1.28.25 2.8 2.8 0 0 1-.79-.1 2.29 2.29 0 0 1-.64-.33zm7.58 1.52a2.93 2.93 0 0 1-1.32-.27 2.27 2.27 0 0 1-.88-.77 3.14 3.14 0 0 1-.49-1.1 5.09 5.09 0 0 1-.16-1.3v-3.52h1.27v3.52a4.61 4.61 0 0 0 .07.84 2.55 2.55 0 0 0 .26.72 1.41 1.41 0 0 0 .49.51 1.44 1.44 0 0 0 .75.19 1.51 1.51 0 0 0 .77-.19 1.42 1.42 0 0 0 .48-.52 2.28 2.28 0 0 0 .26-.72 3.83 3.83 0 0 0 .08-.83v-3.52h1.26v3.52a5.24 5.24 0 0 1-.16 1.34 3.57 3.57 0 0 1-.5 1.1 2.47 2.47 0 0 1-.89.74 3 3 0 0 1-1.29.26zm5.38-4.49v4.44h-1.27v-6.91h1l3.36 4.56v-4.55h1.27v6.9h-1.05zm10.58-1.29h-2.08v5.73h-1.25v-5.73h-2.08v-1.18h5.41zm3.44 5.78a2.79 2.79 0 0 1-1.3-.29 3.18 3.18 0 0 1-1-.79 3.94 3.94 0 0 1-.64-1.12 3.81 3.81 0 0 1-.22-1.3 3.6 3.6 0 0 1 .24-1.32 3.71 3.71 0 0 1 .67-1.12 3.08 3.08 0 0 1 1-.78 2.92 2.92 0 0 1 2.56 0 3.13 3.13 0 0 1 1 .81 3.94 3.94 0 0 1 .64 1.13 3.77 3.77 0 0 1 .23 1.29A3.66 3.66 0 0 1 50.1 62a3.75 3.75 0 0 1-.67 1.12 3.27 3.27 0 0 1-1 .77 2.85 2.85 0 0 1-1.27.31zm-1.89-3.5a2.8 2.8 0 0 0 .13.86 2.63 2.63 0 0 0 .37.75 1.77 1.77 0 0 0 .6.52 1.72 1.72 0 0 0 .8.19 1.65 1.65 0 0 0 .81-.2 1.94 1.94 0 0 0 .6-.54 2.37 2.37 0 0 0 .36-.75 3 3 0 0 0 .12-.83 2.82 2.82 0 0 0-.13-.87 2.47 2.47 0 0 0-.38-.74 1.71 1.71 0 0 0-.59-.51 1.62 1.62 0 0 0-.79-.19 1.56 1.56 0 0 0-.82.2 1.76 1.76 0 0 0-.59.53 2.42 2.42 0 0 0-.36.74 2.63 2.63 0 0 0-.13.84zM59 57.24v6.91h-1.28v-3h-2.95v3h-1.26v-6.91h1.26V60h2.95v-2.76zm3.1 0h1.28l2.39 6.91h-1.3l-.54-1.72h-2.39L61 64.15h-1.3zm1.53 4.25l-.89-2.86-.9 2.86zm8.09.88a1.62 1.62 0 0 1-.28 1 1.85 1.85 0 0 1-.77.6 2.59 2.59 0 0 1-1 .2h-3.19v-6.93H70a1.24 1.24 0 0 1 .8.26 1.68 1.68 0 0 1 .51.66 2 2 0 0 1 .18.84 2 2 0 0 1-.24 1 1.49 1.49 0 0 1-.7.66 1.7 1.7 0 0 1 .89.63 2 2 0 0 1 .28 1.08zm-4-4v1.74h1.68a.68.68 0 0 0 .39-.11.81.81 0 0 0 .28-.3 1 1 0 0 0 .1-.47 1.06 1.06 0 0 0-.09-.45.88.88 0 0 0-.26-.31.65.65 0 0 0-.36-.1zm2.7 3.73a1.16 1.16 0 0 0-.1-.47 1 1 0 0 0-.27-.34.69.69 0 0 0-.39-.12h-1.91V63h1.87a.75.75 0 0 0 .42-.13.84.84 0 0 0 .3-.32 1 1 0 0 0 .11-.43zm2.29 2.05v-6.91H74v6.91zm7.48-5.73h-2.08v5.73h-1.25v-5.73h-2.08v-1.18h5.41zm1.97-1.18h1.29l2.39 6.91h-1.31L84 62.43h-2.39l-.55 1.72h-1.3zm1.54 4.25l-.9-2.86-.9 2.86zm2.21-.85a3.76 3.76 0 0 1 .21-1.24 4 4 0 0 1 .63-1.12 3 3 0 0 1 2.35-1.09 2.84 2.84 0 0 1 1.56.42 2.61 2.61 0 0 1 1 1.09l-1 .71a1.6 1.6 0 0 0-.43-.62 1.63 1.63 0 0 0-.57-.32 2.06 2.06 0 0 0-.59-.09 1.67 1.67 0 0 0-.83.2 1.91 1.91 0 0 0-.59.54 2.19 2.19 0 0 0-.35.74 2.86 2.86 0 0 0-.12.82 2.89 2.89 0 0 0 .14.88 2.43 2.43 0 0 0 .39.75 2 2 0 0 0 .6.52 1.73 1.73 0 0 0 .78.19 1.92 1.92 0 0 0 .61-.11 1.8 1.8 0 0 0 .58-.34 1.68 1.68 0 0 0 .42-.57l1 .64a2 2 0 0 1-.62.87 3.06 3.06 0 0 1-1 .55 3.38 3.38 0 0 1-1.07.18 2.67 2.67 0 0 1-1.27-.3 3.31 3.31 0 0 1-1-.82 4.07 4.07 0 0 1-.65-1.15 3.9 3.9 0 0 1-.18-1.33zm6.68 3.51v-6.91h1.26v6.91zm5.41.05a2.79 2.79 0 0 1-1.3-.29 3 3 0 0 1-1-.79A3.74 3.74 0 0 1 95 62a3.81 3.81 0 0 1-.23-1.29 3.6 3.6 0 0 1 .24-1.32 3.92 3.92 0 0 1 .67-1.12 3.19 3.19 0 0 1 1-.78 2.92 2.92 0 0 1 2.56 0 3.13 3.13 0 0 1 1 .81 3.94 3.94 0 0 1 .64 1.13 3.77 3.77 0 0 1 .23 1.29 3.66 3.66 0 0 1-.24 1.31 3.94 3.94 0 0 1-.66 1.12 3.31 3.31 0 0 1-1 .77 2.85 2.85 0 0 1-1.21.28zm-1.89-3.5a3.14 3.14 0 0 0 .13.86 2.63 2.63 0 0 0 .37.75 1.77 1.77 0 0 0 .6.52A1.72 1.72 0 0 0 98 63a1.65 1.65 0 0 0 .81-.2 1.94 1.94 0 0 0 .6-.54 2.37 2.37 0 0 0 .36-.75 3 3 0 0 0 .13-.83 2.83 2.83 0 0 0-.14-.87 2.7 2.7 0 0 0-.37-.74 1.84 1.84 0 0 0-.6-.51 1.59 1.59 0 0 0-.79-.19 1.56 1.56 0 0 0-.82.2 1.76 1.76 0 0 0-.59.53 2.42 2.42 0 0 0-.36.74 2.63 2.63 0 0 0-.14.86zm7.28-.99v4.44h-1.26v-6.91h1l3.36 4.56v-4.55h1.26v6.9h-1.05zm7.49-2.47h1.29l2.39 6.91h-1.3l-.54-1.72h-2.39l-.54 1.72h-1.31zm1.54 4.25l-.89-2.86-.9 2.86zm2.85 2.66v-6.91h1.26V63h3.32v1.17zm7.27 0v-6.91h2.88a1.81 1.81 0 0 1 .83.19 2.24 2.24 0 0 1 .66.53 2.61 2.61 0 0 1 .43.74 2.4 2.4 0 0 1 .15.84 2.64 2.64 0 0 1-.14.84 2.28 2.28 0 0 1-.41.71 2 2 0 0 1-.62.46l1.48 2.6h-1.39l-1.34-2.31h-1.26v2.31zm1.27-3.49h1.58a.64.64 0 0 0 .42-.15 1.07 1.07 0 0 0 .3-.41 1.47 1.47 0 0 0 .11-.56 1.31 1.31 0 0 0-.13-.58 1.2 1.2 0 0 0-.33-.4.66.66 0 0 0-.42-.14h-1.53zm9.34 2.34v1.17h-4.52v-6.93h4.44v1.18h-3.17v1.66h2.74v1.09h-2.74V63zm2.25-3.29v4.44h-1.26v-6.91h1l3.36 4.56v-4.55h1.26v6.9h-1.05zm8.43 4.49a2.77 2.77 0 0 1-1.2-.27 3.25 3.25 0 0 1-1-.75 3.73 3.73 0 0 1-.66-1.13 3.94 3.94 0 0 1-.24-1.39 3.71 3.71 0 0 1 .24-1.34 3.47 3.47 0 0 1 .67-1.11 3.1 3.1 0 0 1 1-.75 2.89 2.89 0 0 1 1.25-.27 2.94 2.94 0 0 1 1.57.41 2.62 2.62 0 0 1 1 1.1l-.95.74a1.73 1.73 0 0 0-.69-.79 1.84 1.84 0 0 0-1-.27 1.61 1.61 0 0 0-.76.18 1.87 1.87 0 0 0-.58.51 2.25 2.25 0 0 0-.38.74 2.86 2.86 0 0 0-.14.89 2.67 2.67 0 0 0 .15.91 2.24 2.24 0 0 0 .4.73 1.91 1.91 0 0 0 .61.49 1.66 1.66 0 0 0 .77.19 1.87 1.87 0 0 0 .95-.28 3 3 0 0 0 .84-.8v1.33a2.46 2.46 0 0 1-1.85.93zm1.81-2.62h-1.31v-1h2.36v3.55h-1.05zm2.13 2.57v-6.91H149v6.91zm2.62 0v-6.91h4.36v1.18h-3.1v1.78h2.58v1.09h-2.58v2.86zm7.93.05a2.79 2.79 0 0 1-1.3-.29 3.07 3.07 0 0 1-1-.79 3.71 3.71 0 0 1-.64-1.13 3.74 3.74 0 0 1 0-2.61 3.71 3.71 0 0 1 .67-1.12 3.08 3.08 0 0 1 1-.78 2.73 2.73 0 0 1 1.27-.29 2.76 2.76 0 0 1 1.29.3 3.13 3.13 0 0 1 1 .81 4.18 4.18 0 0 1 .64 1.13 3.77 3.77 0 0 1 .23 1.29 3.66 3.66 0 0 1-.24 1.31 3.75 3.75 0 0 1-.67 1.12 3.27 3.27 0 0 1-1 .77 2.85 2.85 0 0 1-1.25.28zm-1.89-3.5a2.8 2.8 0 0 0 .13.86 2.39 2.39 0 0 0 .37.75 1.77 1.77 0 0 0 .6.52 1.72 1.72 0 0 0 .8.19 1.68 1.68 0 0 0 .81-.2 1.94 1.94 0 0 0 .6-.54 2.37 2.37 0 0 0 .36-.75 3 3 0 0 0 .12-.83 2.82 2.82 0 0 0-.13-.87 2.47 2.47 0 0 0-.38-.74 1.8 1.8 0 0 0-.59-.51 1.62 1.62 0 0 0-.79-.19 1.54 1.54 0 0 0-.82.2 1.67 1.67 0 0 0-.59.53 2.7 2.7 0 0 0-.37.74 2.94 2.94 0 0 0-.12.84z"/></svg>
