<svg xmlns="http://www.w3.org/2000/svg" viewBox="0 0 36 36"><defs><style>.cls-1{fill:#344754;}</style></defs><g id="Capa_2" data-name="Capa 2"><g id="Capa_12" data-name="Capa 12"><path class="cls-1" d="M29.81,25.51l-1.2.46a1.56,1.56,0,0,0-1,2.09,2.16,2.16,0,0,1,.15.52.91.91,0,0,1-.14.58,1.69,1.69,0,0,0-.31,2.22.56.56,0,0,1,0,.52,2.63,2.63,0,0,0-.13,3c.31.62,0,1.06-.7,1.07h-11l-.28,0V8c.88.21,1.72.37,2.55.61a31.29,31.29,0,0,1,3,1,3.86,3.86,0,0,1,2,1.84c2.45,4.44,4.92,8.87,7.37,13.3C30.35,25.18,30.3,25.31,29.81,25.51Z"/><path class="cls-1" d="M34.5,7.17a.28.28,0,0,0,0,.09L23.85,10.94a6.47,6.47,0,0,0-4.69-3.27c-1.55-.39-3.1-.76-4.66-1.13-.53-.13-.56-.1-.56.46V36H11.2V0Z"/><path class="cls-1" d="M36,8.05V36H28.42c.29-.81-.14-1.49-.38-2.22a1.38,1.38,0,0,1,.06-.69,3.7,3.7,0,0,1,.31-.59,1.58,1.58,0,0,0,0-1.72c-.14-.21-.19-.41,0-.59a1.76,1.76,0,0,0,.61-1.8L31,28.08A9.83,9.83,0,0,0,32,27.89a1.49,1.49,0,0,0,1.25-1.62c0-.68,0-1.36,0-2V14.56a1.74,1.74,0,0,0-2.46-1.84l-5.1,1.53c-.41-.73-.81-1.45-1.23-2.22Z"/><path class="cls-1" d="M10,10.57a3.8,3.8,0,0,1,0,.38l-1.79-.38L5.06,9.89a1.8,1.8,0,0,0-2.33,1.88V36H0V4.15l.88.2,8.7,2.22c.26.07.39.16.39.47C9.94,8.21,10,9.39,10,10.57Z"/><path class="cls-1" d="M9.93.06V5.39C7.11,4.68,4.34,4,1.56,3.25c0,0,0,0,0-.08Z"/></g></g></svg>